<?xml version="1.0" standalone="no"?>
<!DOCTYPE svg PUBLIC "-//W3C//DTD SVG 20010904//EN"
 "http://www.w3.org/TR/2001/REC-SVG-20010904/DTD/svg10.dtd">
<svg version="1.0" xmlns="http://www.w3.org/2000/svg"
 width="514.000000pt" height="514.000000pt" viewBox="0 0 514.000000 514.000000"
 preserveAspectRatio="xMidYMid meet">
<metadata>
Created by potrace 1.14, written by Peter Selinger 2001-2017
</metadata>
<g transform="translate(0.000000,514.000000) scale(0.100000,-0.100000)"
fill="#000000" stroke="none">
<path d="M2470 5051 c-73 -26 -129 -91 -179 -209 -25 -57 -48 -105 -51 -107
-4 -2 -24 26 -46 63 -80 138 -165 190 -290 179 -44 -4 -76 -14 -106 -33 -40
-25 -108 -91 -108 -105 0 -9 -122 -207 -181 -295 -97 -145 -228 -291 -395
-440 -104 -94 -379 -321 -406 -335 -32 -17 -278 -255 -334 -324 -183 -222
-305 -526 -350 -870 -4 -27 -7 -124 -8 -214 -2 -210 10 -353 41 -496 8 -38 19
-90 24 -114 5 -25 14 -59 19 -75 50 -156 74 -222 81 -231 5 -5 9 -15 9 -22 0
-16 105 -235 149 -311 111 -191 243 -350 425 -511 76 -67 259 -182 389 -245
110 -54 299 -128 357 -141 8 -2 49 -12 90 -23 72 -20 248 -56 320 -66 32 -5
69 -9 160 -21 209 -27 771 -27 985 0 17 2 55 7 85 11 30 4 64 8 75 9 42 4 204
37 295 60 245 62 545 190 725 310 229 152 473 443 624 743 121 240 211 532
237 767 3 27 9 75 14 105 9 58 6 411 -4 470 -3 19 -10 67 -17 105 -6 39 -18
95 -26 125 -8 30 -16 63 -18 73 -10 47 -62 181 -102 265 -38 78 -101 180 -180
292 -28 39 -171 181 -243 241 -36 30 -67 56 -70 59 -3 3 -41 35 -85 70 -494
399 -629 542 -846 894 -57 94 -118 184 -135 201 -91 91 -254 99 -355 16 -20
-17 -58 -66 -84 -110 -27 -44 -52 -78 -55 -76 -4 2 -26 49 -50 105 -50 117
-91 169 -158 201 -60 29 -158 34 -222 10z"/>
</g>
</svg>
